<?xml version="1.0" standalone="no"?>
<!DOCTYPE svg PUBLIC "-//W3C//DTD SVG 20010904//EN"
 "http://www.w3.org/TR/2001/REC-SVG-20010904/DTD/svg10.dtd">
<svg version="1.0" xmlns="http://www.w3.org/2000/svg"
 width="1600.000000pt" height="1200.000000pt" viewBox="0 0 1600.000000 1200.000000"
 preserveAspectRatio="xMidYMid meet">

<g transform="translate(0.000000,1200.000000) scale(0.100000,-0.100000)"
fill="#000000" stroke="none">
<path d="M8475 8373 c-169 -15 -411 -101 -501 -176 -22 -19 -49 -27 -119 -36
-142 -19 -248 -79 -270 -151 -7 -20 3 -15 52 31 74 68 132 89 268 96 l100 5
72 -76 c40 -41 89 -101 110 -132 20 -31 39 -51 41 -45 14 41 -179 266 -239
278 l-30 6 49 27 c75 41 216 96 312 121 72 20 111 23 260 23 150 1 187 -2 258
-21 96 -26 225 -84 309 -140 131 -86 266 -240 342 -391 28 -55 38 -48 18 13
-25 71 -103 182 -191 271 -219 220 -519 326 -841 297z"/>
<path d="M8120 8084 c1 -17 250 -107 331 -120 98 -16 132 -35 269 -151 110
-93 163 -133 176 -133 14 0 -39 50 -151 144 -171 143 -175 146 -305 167 -36 5
-106 27 -155 49 -94 40 -165 59 -165 44z"/>
<path d="M7340 8051 c-87 -28 -153 -96 -176 -181 -8 -30 -19 -72 -25 -93 -7
-26 -29 -57 -70 -95 -48 -47 -61 -67 -73 -110 -10 -40 -23 -61 -53 -87 -48
-41 -59 -68 -68 -157 -6 -63 -15 -82 -29 -59 -4 5 -27 16 -53 25 -48 17 -93
51 -93 71 0 20 -35 45 -63 45 -14 0 -48 5 -76 12 -38 8 -57 9 -76 0 -42 -20
-28 -27 54 -28 108 -1 124 -7 144 -49 14 -30 31 -42 91 -70 41 -18 76 -38 80
-43 3 -5 -1 -18 -9 -30 -15 -20 -127 -103 -155 -114 -9 -3 -36 -48 -61 -99
-45 -92 -71 -123 -170 -201 -28 -22 -31 -27 -14 -27 11 0 49 23 85 52 52 42
72 67 100 124 20 40 39 75 43 79 18 18 -17 -65 -73 -174 -35 -67 -61 -124 -59
-127 10 -10 135 212 156 278 28 83 31 88 104 137 35 24 63 53 73 75 13 27 32
140 36 213 0 2 25 28 55 57 40 38 55 60 55 79 0 38 13 58 79 123 55 54 60 63
76 133 22 103 54 153 118 190 68 39 139 41 215 5 63 -29 66 -11 4 23 -45 25
-131 37 -172 23z"/>
<path d="M8460 7875 c0 -47 110 -219 225 -354 94 -111 119 -218 113 -491 l-3
-155 33 -45 c20 -28 45 -84 63 -145 33 -106 65 -167 99 -185 17 -9 16 -4 -9
30 -17 23 -37 67 -46 98 -35 126 -48 159 -83 210 l-36 53 3 172 c4 282 -18
363 -132 497 -68 81 -104 132 -191 275 -22 36 -36 52 -36 40z"/>
<path d="M8288 7737 c-2 -12 -4 -70 -4 -129 1 -105 1 -106 34 -147 37 -46 52
-87 52 -141 1 -30 2 -32 11 -16 21 36 5 112 -35 162 l-36 47 0 124 c0 67 -4
123 -9 123 -5 0 -11 -10 -13 -23z"/>
<path d="M9460 7691 c-47 -10 -120 -33 -162 -50 -74 -31 -165 -88 -155 -97 2
-2 51 18 108 45 136 65 246 91 386 92 304 1 543 -130 723 -396 37 -55 77 -108
88 -119 17 -15 19 -23 11 -38 -15 -27 -13 -122 2 -146 11 -17 9 -49 -9 -179
-24 -169 -27 -220 -13 -242 13 -20 17 -4 20 79 2 41 9 111 17 155 8 44 14 109
15 145 0 55 2 61 11 40 10 -23 12 -18 31 53 l19 78 32 -7 c65 -13 154 -64 198
-113 45 -50 124 -226 106 -237 -4 -3 -22 -34 -38 -70 -29 -64 -29 -64 -70 -64
-111 0 -304 -62 -403 -129 -32 -22 -74 -45 -95 -51 -20 -7 -89 -34 -153 -61
-84 -35 -140 -51 -199 -58 -53 -7 -156 -35 -284 -78 -188 -62 -208 -67 -309
-71 l-108 -4 22 36 c34 59 41 107 25 184 -8 37 -17 84 -21 105 -3 20 -10 37
-15 37 -14 0 -12 -56 5 -125 20 -85 18 -126 -9 -177 -36 -67 -41 -88 -21 -88
15 0 14 -3 -4 -17 -42 -35 -6 -55 249 -138 129 -42 282 -98 340 -125 156 -71
270 -111 525 -185 501 -144 640 -202 763 -318 17 -17 32 -26 32 -20 0 11 -79
87 -120 116 -33 23 -29 26 149 84 114 38 152 56 187 86 43 38 48 49 59 143 6
45 10 53 38 66 87 42 186 168 187 238 0 14 12 36 25 49 34 32 34 95 0 142 -27
37 -30 44 -70 139 -38 90 -106 182 -173 237 -112 89 -281 153 -407 153 -94 0
-78 -16 27 -28 57 -6 132 -21 167 -33 83 -28 198 -106 261 -177 63 -70 129
-200 109 -213 -11 -6 -4 -18 29 -50 73 -70 80 -115 25 -165 -20 -19 -32 -34
-26 -34 17 0 -4 -75 -34 -121 -22 -33 -137 -129 -155 -129 -3 0 -8 17 -10 38
-9 63 -65 191 -148 332 -43 74 -103 187 -133 250 -30 63 -63 123 -75 133 -12
11 -49 22 -94 29 -40 5 -74 11 -76 13 -2 1 4 20 13 41 32 74 34 92 19 151 -21
79 -71 169 -117 208 -45 39 -137 85 -185 92 -29 5 -33 9 -28 28 4 14 0 28 -9
35 -12 10 -21 8 -50 -10 l-35 -21 -56 88 c-94 148 -106 163 -175 226 -210 194
-503 276 -779 218z m1070 -568 c0 -5 -12 -16 -26 -27 -26 -18 -26 -18 -15 2 9
17 19 25 39 31 1 1 2 -2 2 -6z m-106 -723 c65 -60 224 -241 267 -305 26 -39
56 -113 103 -255 62 -188 81 -262 55 -217 -6 9 -39 102 -74 205 -35 103 -75
208 -90 234 -29 52 -141 184 -256 301 -79 80 -82 108 -5 37z m-162 -80 c30 0
47 -4 43 -10 -7 -11 -143 -14 -169 -4 -35 13 -15 27 30 20 26 -3 69 -6 96 -6z
m-202 -190 c88 -101 182 -163 295 -195 65 -19 92 -35 58 -35 -36 0 -146 38
-201 70 -51 30 -262 224 -262 242 0 20 62 -26 110 -82z"/>
<path d="M8960 7632 c0 -7 26 -56 59 -110 123 -204 141 -256 141 -402 0 -107
0 -108 35 -156 19 -27 49 -73 66 -102 17 -29 34 -51 36 -48 11 11 -22 80 -65
138 l-47 63 0 115 c-1 105 -3 121 -32 190 -55 135 -193 357 -193 312z"/>
<path d="M6185 7346 c-48 -18 -95 -70 -95 -106 -1 -19 -12 -32 -45 -52 -30
-18 -54 -44 -72 -78 -32 -57 -35 -59 -195 -83 -119 -18 -210 -58 -272 -120
-58 -58 -77 -97 -82 -166 l-4 -56 14 52 c37 144 163 237 361 268 148 23 157
27 182 65 41 64 66 92 98 107 26 12 34 24 39 52 6 41 35 74 79 90 45 17 167
13 252 -9 124 -32 199 -85 212 -152 3 -15 10 -25 15 -22 15 10 1 64 -27 100
-64 84 -347 151 -460 110z"/>
<path d="M6381 7153 c-12 -14 -24 -43 -27 -64 l-6 -37 -52 24 c-145 68 -316
-10 -316 -143 0 -59 -7 -63 -70 -47 -92 24 -162 0 -200 -68 -21 -38 -22 -38
-69 -32 -56 7 -70 -5 -78 -68 -3 -24 -10 -51 -15 -60 -13 -27 -82 -41 -168
-33 -84 7 -140 -7 -158 -42 -9 -16 -27 -82 -46 -164 -3 -15 -14 -29 -25 -32
-12 -3 -23 -19 -30 -43 -14 -49 -14 -131 -1 -139 6 -4 10 11 10 37 0 48 17
118 28 118 5 0 7 -17 5 -37 l-2 -38 13 40 c11 34 17 40 45 43 18 2 50 -5 74
-17 22 -11 43 -18 46 -15 12 12 -41 47 -85 55 -26 5 -49 11 -52 14 -2 2 4 37
13 77 25 100 45 118 130 118 l67 0 -26 -31 c-39 -46 -32 -66 9 -25 45 46 116
68 233 72 l92 4 63 63 c61 61 93 78 170 92 54 9 36 29 -19 21 -66 -9 -138 -50
-185 -106 l-42 -50 -69 0 c-61 0 -69 2 -64 18 2 9 8 33 11 52 10 51 20 58 69
53 43 -5 45 -4 70 36 43 68 102 85 200 59 55 -15 76 -1 76 49 0 102 99 184
203 169 23 -4 65 -17 93 -30 43 -20 52 -29 62 -64 7 -23 17 -44 23 -47 5 -4
-17 -24 -49 -45 -61 -39 -79 -57 -68 -67 3 -4 25 7 49 24 23 17 66 43 96 57
45 23 61 26 101 21 43 -6 48 -4 64 20 23 35 12 44 -18 16 -21 -20 -27 -21 -45
-9 -18 11 -28 10 -67 -4 l-45 -16 -10 25 c-5 14 -7 28 -4 33 3 5 0 20 -6 34
-13 28 -2 85 24 120 14 19 15 19 44 -2 17 -12 45 -44 63 -72 18 -27 36 -48 40
-45 16 10 -4 47 -52 101 -57 62 -85 68 -117 27z"/>
<path d="M8407 7104 c-3 -11 -13 -78 -22 -150 -19 -153 -15 -180 44 -271 69
-107 85 -96 19 13 -52 85 -57 132 -33 293 11 74 13 117 7 123 -7 7 -12 4 -15
-8z"/>
<path d="M6798 6863 c-43 -35 -272 -293 -265 -299 10 -10 42 19 112 99 39 44
99 111 134 149 68 73 77 96 19 51z"/>
<path d="M6903 6841 c-12 -15 -61 -54 -108 -86 -86 -57 -125 -97 -143 -146 -6
-14 -7 -32 -2 -39 6 -10 13 -2 25 26 21 51 66 97 136 140 56 33 129 104 129
124 0 17 -14 10 -37 -19z"/>
<path d="M6144 6833 c-13 -14 -29 -43 -35 -64 -11 -35 -14 -37 -40 -32 -80 16
-162 -42 -194 -136 -26 -80 -15 -109 13 -33 28 75 72 128 117 141 35 9 82 4
91 -10 11 -19 22 -8 28 29 8 48 41 102 63 102 9 0 29 -15 44 -32 25 -29 28
-31 29 -12 0 28 -43 74 -70 74 -12 0 -32 -12 -46 -27z"/>
<path d="M6143 6658 l-63 -30 0 -44 0 -45 -49 7 c-44 6 -50 4 -61 -16 -17 -32
-9 -146 13 -167 21 -21 32 -11 18 15 -6 12 -11 51 -11 87 l0 67 28 -7 c15 -3
39 -12 55 -20 l27 -13 0 58 0 59 43 19 c39 18 92 63 71 61 -5 0 -37 -14 -71
-31z"/>
<path d="M7480 6634 c-77 -79 -107 -100 -239 -169 -130 -67 -155 -94 -130
-144 l13 -26 4 35 c5 47 13 55 106 102 151 76 269 166 302 230 22 43 4 34 -56
-28z"/>
<path d="M9310 6597 c0 -33 148 -247 170 -247 14 0 -3 31 -51 95 -20 28 -51
76 -69 108 -30 54 -50 72 -50 44z"/>
<path d="M7916 6468 c-9 -40 -20 -114 -25 -165 -18 -167 -38 -183 -233 -182
-108 0 -129 2 -113 12 11 7 41 33 66 58 56 56 69 102 67 243 -1 84 -3 96 -15
80 -9 -12 -13 -50 -13 -115 0 -111 -8 -140 -53 -187 -51 -53 -76 -62 -179 -62
-131 0 -243 34 -268 80 -16 29 -43 40 -137 56 -82 13 -101 21 -235 98 -33 19
-48 24 -48 14 0 -14 7 -19 97 -74 29 -17 50 -34 47 -36 -3 -3 16 -9 41 -12 56
-9 65 -24 72 -121 5 -68 -9 -186 -26 -213 -5 -9 -22 -2 -56 23 -58 41 -75 37
-25 -6 115 -97 407 -270 600 -354 186 -82 498 -179 673 -211 30 -5 37 -10 37
-30 0 -13 20 -76 44 -141 164 -441 236 -755 236 -1026 0 -205 -32 -232 -192
-160 -50 22 -59 31 -68 62 -5 20 -10 39 -10 42 0 4 48 -6 108 -22 202 -54 162
-32 -98 54 -347 115 -626 232 -935 391 -441 227 -715 427 -1065 776 -139 139
-190 197 -244 280 -37 58 -79 117 -93 132 -22 23 -25 34 -20 67 17 131 148
254 427 404 131 70 203 89 340 88 63 -1 133 -5 155 -11 41 -10 92 -13 84 -6
-8 8 -164 35 -224 39 -171 12 -315 -41 -572 -210 -79 -52 -83 -53 -135 -47
-37 4 -85 0 -155 -15 -127 -26 -205 -26 -311 -1 -46 11 -93 20 -106 20 -32 0
-37 9 -21 39 31 60 105 111 160 111 19 0 26 7 31 28 22 103 83 138 134 78 16
-20 30 -20 30 -2 0 21 -49 56 -77 56 -51 0 -86 -32 -103 -92 -9 -31 -17 -39
-48 -48 -20 -5 -51 -19 -69 -30 -35 -21 -93 -94 -93 -116 0 -8 -12 -16 -27
-19 -72 -15 -171 -43 -306 -86 -153 -48 -220 -84 -266 -141 -59 -73 -107 -263
-99 -394 6 -82 30 -138 86 -197 61 -64 232 -188 311 -226 64 -30 88 -36 162
-39 l87 -4 4 -87 c6 -121 32 -170 168 -317 108 -116 110 -120 103 -154 -5 -19
-8 -136 -7 -260 1 -186 4 -245 22 -343 29 -152 70 -280 142 -436 31 -69 68
-159 81 -200 l24 -74 60 -28 c106 -48 191 -59 560 -75 83 -3 177 -10 210 -14
94 -12 -148 -12 -381 0 -200 10 -306 27 -382 60 -25 11 -47 18 -50 16 -2 -3 5
-35 17 -73 11 -37 26 -92 32 -121 9 -46 15 -55 47 -71 111 -55 267 -89 457
-98 150 -7 159 -21 15 -22 -142 -1 -301 28 -442 82 l-68 26 0 -35 c0 -42 -26
-97 -43 -91 -99 37 -391 85 -347 57 8 -5 29 -10 47 -10 52 0 263 -58 329 -90
54 -26 308 -181 326 -198 4 -4 -20 -5 -53 -4 -110 7 -264 -40 -365 -109 -60
-41 -79 -86 -94 -221 -19 -175 0 -263 86 -390 29 -43 52 -78 51 -78 -1 0 -31
9 -67 21 -36 11 -112 33 -170 49 -59 16 -154 47 -212 70 -130 50 -156 76 -227
222 -81 167 -86 190 -85 368 1 144 6 185 72 575 76 450 91 563 72 532 -17 -26
-168 -950 -176 -1072 -8 -123 11 -230 61 -343 30 -67 32 -79 21 -102 -7 -14
-28 -81 -45 -150 -68 -260 -145 -532 -206 -720 -66 -203 -131 -495 -159 -710
-20 -156 -25 -380 -8 -380 8 0 12 21 12 73 1 140 20 324 50 492 41 222 69 331
141 554 68 210 194 664 210 761 17 99 22 101 59 31 42 -79 84 -113 179 -147
42 -15 77 -28 79 -29 2 -2 -6 -18 -17 -36 -26 -44 -45 -119 -76 -302 -18 -111
-40 -194 -86 -325 -138 -399 -156 -480 -183 -807 -9 -104 -18 -207 -21 -228
l-5 -37 1593 0 1594 0 12 96 c6 53 51 279 100 503 104 474 111 508 151 746 47
273 51 318 40 398 -16 112 -42 168 -180 392 -125 203 -139 311 -90 705 32 259
49 490 36 490 -4 0 -46 -13 -94 -30 -235 -79 -474 -145 -674 -184 -210 -41
-220 -44 -248 -75 -16 -17 -61 -47 -101 -66 -39 -19 -107 -57 -150 -86 -86
-56 -107 -89 -73 -113 33 -25 168 -34 249 -17 108 23 337 97 390 126 33 18 89
48 125 68 71 39 249 94 274 84 11 -4 16 -19 16 -48 0 -35 2 -40 18 -34 33 15
70 17 77 5 15 -24 -68 -162 -144 -243 -85 -89 -165 -150 -306 -233 -61 -35
-93 -60 -83 -62 9 -2 30 4 47 13 17 8 63 27 103 41 117 42 144 60 255 165 58
54 111 99 118 99 17 0 25 -23 25 -69 0 -103 -130 -250 -310 -350 -63 -35 -148
-75 -190 -90 -48 -17 -75 -31 -75 -41 0 -13 19 -15 125 -12 122 3 127 4 210
43 47 22 92 47 102 55 9 9 29 14 45 12 22 -2 29 -9 31 -30 2 -15 -2 -36 -7
-47 -14 -26 -121 -108 -164 -126 -37 -15 -305 -66 -477 -90 -63 -8 -142 -20
-176 -25 -33 -6 -138 -10 -233 -10 -127 0 -190 -4 -235 -16 -33 -9 -122 -26
-196 -39 l-135 -23 -51 53 c-86 87 -142 233 -128 329 4 22 15 61 26 86 18 44
21 46 93 69 41 12 94 38 119 57 45 34 71 87 161 323 15 41 40 87 54 102 14 16
94 65 176 109 130 69 157 80 200 80 28 0 75 7 105 16 94 27 110 28 110 10 0
-9 6 -16 13 -16 7 0 106 18 220 40 186 36 326 75 697 192 l75 24 -2 192 c-2
175 -22 399 -43 470 l-8 29 66 -34 c52 -27 75 -33 111 -31 38 3 49 8 67 36 29
43 38 112 29 241 -12 199 -54 420 -121 639 -34 111 -139 403 -160 443 -8 17
-13 33 -10 36 11 12 424 -50 549 -82 226 -57 435 -131 502 -177 58 -40 59 -40
30 -9 -45 49 -96 75 -245 126 -249 85 -385 116 -674 152 -85 10 -132 20 -120
24 30 11 200 55 307 79 87 19 103 26 136 59 l37 37 53 -48 c109 -100 327 -225
671 -383 265 -122 371 -175 484 -240 188 -107 398 -204 741 -339 176 -70 329
-131 341 -136 26 -10 88 -136 103 -208 6 -29 11 -78 11 -107 0 -61 19 -77 21
-17 3 96 -12 172 -47 247 -13 27 -21 51 -19 53 2 2 50 -14 108 -37 122 -47
174 -58 218 -42 l31 11 -6 -31 c-3 -18 -13 -111 -21 -208 -15 -171 -120 -984
-151 -1166 -8 -49 -39 -162 -68 -250 -50 -149 -54 -168 -59 -281 -5 -115 -7
-124 -46 -205 -35 -74 -41 -95 -45 -175 -3 -49 -10 -103 -16 -118 -6 -16 -9
-31 -7 -33 11 -10 36 80 42 150 6 62 16 95 48 160 38 79 40 87 47 217 7 126
11 144 54 263 49 137 76 254 100 437 9 63 36 266 61 450 51 373 75 605 75 719
l0 76 66 55 c78 66 107 102 141 177 31 68 40 163 24 258 -16 91 -112 382 -157
475 -42 87 -132 226 -165 255 -22 18 -21 17 3 -16 104 -140 184 -321 263 -594
50 -173 50 -298 -1 -397 -20 -39 -156 -173 -198 -195 -43 -22 -127 -12 -216
27 -41 17 -208 83 -370 147 -451 176 -732 301 -867 386 -55 35 -307 160 -548
273 -104 49 -244 117 -310 152 -129 68 -328 196 -359 231 -25 27 -28 27 -80
-13 -32 -24 -67 -39 -123 -51 -43 -10 -121 -29 -173 -42 -188 -48 -229 -52
-327 -31 -101 22 -254 67 -266 78 -5 4 6 10 22 13 17 4 31 11 31 17 0 13 -20
13 -76 -1 -38 -10 -52 -8 -107 11 -34 13 -66 26 -70 30 -5 5 17 18 49 29 71
27 76 30 69 41 -3 5 -36 -2 -73 -16 -37 -15 -74 -28 -83 -31 -9 -3 -65 19
-125 47 l-109 52 105 29 c58 16 133 35 168 42 35 7 62 17 62 22 -2 16 -67 7
-182 -26 -136 -38 -206 -46 -232 -24 -11 8 -18 17 -15 19 2 2 63 22 134 44 72
22 245 76 386 121 357 113 388 119 664 127 198 5 250 10 374 35 167 33 263 36
339 10 28 -10 52 -16 52 -15 0 11 -87 45 -137 53 -62 10 -181 -4 -303 -34 -46
-12 -127 -18 -275 -21 -116 -2 -258 -12 -317 -21 -113 -16 -129 -15 -233 23
-27 10 -52 20 -54 21 -2 1 8 16 22 33 15 17 28 45 31 63 3 18 12 85 21 149 8
65 18 131 21 148 4 18 2 30 -4 30 -6 0 -18 -33 -26 -72z m-2476 -466 c0 -4
-25 -16 -56 -25 -57 -18 -147 -70 -176 -103 -41 -46 -51 -94 -51 -228 1 -101
-2 -126 -10 -110 -13 22 -16 201 -4 255 4 21 19 53 32 73 l25 36 -28 -6 c-131
-32 -188 -161 -128 -291 13 -28 59 -106 101 -173 42 -67 74 -124 72 -127 -16
-15 -180 246 -209 334 -23 67 -18 118 18 180 29 51 101 96 155 99 23 1 58 14
87 33 74 47 172 77 172 53z m360 -9 c0 -5 -37 -35 -83 -68 -101 -74 -180 -147
-218 -202 -28 -41 -42 -88 -55 -188 l-6 -50 -15 46 c-15 45 -14 49 21 155 50
151 131 293 153 270 3 -3 -7 -25 -24 -49 -28 -39 -73 -120 -73 -131 0 -3 23
17 51 45 51 49 225 179 241 179 4 0 8 -3 8 -7z m-120 -240 c0 -5 -7 -33 -15
-63 -20 -76 -20 -83 5 -68 34 22 48 -6 52 -104 2 -72 1 -83 -9 -65 -7 12 -13
47 -13 77 0 75 -15 96 -29 44 -6 -21 -14 -65 -18 -96 -4 -39 -10 -58 -19 -58
-17 0 -19 150 -3 220 20 91 30 120 39 120 6 0 10 -3 10 -7z m305 -400 c110
-36 110 -36 113 -74 5 -58 -60 -99 -157 -99 -26 0 -71 -7 -101 -16 -30 -9 -84
-16 -120 -15 -47 1 -61 -1 -50 -9 8 -5 28 -10 44 -10 18 0 42 -12 67 -35 82
-74 91 -76 346 -70 126 3 260 7 298 10 l71 4 58 -46 59 -47 -69 -23 c-128 -44
-208 -62 -384 -88 -96 -15 -185 -29 -197 -31 -22 -6 -38 -43 -25 -56 14 -14
237 -68 282 -68 56 0 227 40 300 69 l55 23 -25 -28 -25 -27 38 28 c60 44 52
24 -13 -33 -33 -29 -112 -119 -176 -200 -180 -226 -215 -263 -342 -360 -64
-49 -164 -128 -220 -176 -57 -47 -109 -86 -115 -86 -18 0 54 68 157 150 52 41
95 78 95 83 1 4 -8 7 -19 7 -53 0 -102 45 -335 305 -132 147 -250 281 -262
298 -62 83 -76 231 -32 327 45 97 93 140 172 154 38 7 46 -1 25 -22 -6 -6 -8
-15 -4 -19 4 -5 40 27 80 69 40 42 84 79 97 82 13 2 69 16 124 29 55 14 102
26 105 26 2 1 40 -11 85 -26z m779 -575 c-4 -7 -36 -49 -70 -93 -78 -101 -118
-169 -156 -264 -39 -100 -101 -217 -200 -376 -86 -137 -106 -165 -119 -165
-11 0 3 25 128 227 55 89 119 206 143 260 88 203 128 270 218 366 54 56 70 69
56 45z m511 -827 c-3 -6 -40 -29 -83 -52 -116 -63 -158 -95 -258 -190 -109
-103 -157 -142 -329 -264 -127 -90 -167 -115 -181 -115 -17 0 30 38 160 129
174 122 195 138 324 259 58 53 127 112 153 130 54 36 184 103 217 111 2 1 1
-3 -3 -8z m-1303 -358 c-2 -115 -8 -212 -13 -217 -15 -16 -14 360 1 400 5 13
11 24 12 24 2 0 1 -93 0 -207z m251 -1185 c15 -12 14 -18 -5 -73 -31 -92 -22
-180 30 -289 23 -48 58 -102 82 -126 23 -23 40 -44 37 -46 -2 -2 -53 -15 -113
-29 -125 -27 -288 -45 -418 -45 -63 0 -87 -3 -79 -11 15 -15 237 -12 359 6 58
9 110 15 115 13 14 -5 -48 -117 -98 -176 l-47 -55 -70 6 c-136 12 -179 39
-261 166 -65 100 -79 161 -72 306 10 197 29 231 161 295 70 34 120 48 226 64
58 8 137 5 153 -6z"/>
<path d="M5822 4558 c6 -19 125 -76 188 -89 88 -18 321 13 333 45 4 10 -15 9
-81 -6 -117 -26 -256 -22 -327 11 -108 50 -117 53 -113 39z"/>
<path d="M5790 4400 c0 -21 93 -99 136 -116 35 -13 59 -14 140 -7 58 5 99 13
101 20 3 8 -22 10 -95 6 -55 -3 -111 -3 -126 1 -14 3 -49 26 -78 49 -67 55
-78 61 -78 47z"/>
<path d="M5855 6377 c-17 -17 -47 -45 -68 -60 -39 -29 -77 -92 -77 -127 0 -34
16 -22 34 24 15 39 64 95 107 122 8 5 27 24 43 42 26 28 27 32 10 32 -10 0
-33 -15 -49 -33z"/>
<path d="M8757 5814 c-7 -8 26 -76 48 -98 28 -28 35 -7 10 30 -13 20 -27 44
-30 55 -6 19 -17 24 -28 13z"/>
<path d="M9330 5003 c5 -16 21 -61 35 -102 38 -104 55 -194 55 -286 0 -215
-79 -352 -324 -560 -194 -165 -309 -235 -481 -291 -55 -18 -92 -33 -82 -33 36
-2 162 32 223 60 212 95 550 391 629 552 86 174 80 410 -17 619 -31 68 -54 93
-38 41z"/>
<path d="M4969 4959 c-16 -17 -29 -35 -29 -41 0 -5 -13 -7 -30 -3 -43 10 -111
-26 -146 -76 -22 -32 -29 -55 -32 -104 -5 -74 9 -124 48 -168 15 -18 30 -50
33 -73 6 -39 5 -42 -18 -48 -15 -4 -30 -18 -36 -34 -16 -40 -17 -178 -1 -193
10 -10 12 3 12 68 0 45 4 93 10 107 9 24 14 26 76 26 48 0 65 3 62 13 -3 6
-21 13 -41 15 l-37 3 0 56 c0 114 49 195 125 208 58 9 70 18 73 58 2 26 12 44
33 62 35 29 55 31 122 10 26 -8 47 -10 47 -5 0 18 -60 40 -109 40 -41 0 -56
-5 -81 -27 -27 -25 -32 -39 -39 -104 -1 -4 -22 -9 -47 -12 -59 -6 -109 -53
-134 -126 -13 -40 -20 -49 -28 -38 -24 29 -52 104 -52 142 0 54 37 124 79 152
39 26 89 30 97 8 10 -25 34 -17 34 11 0 25 34 66 75 91 19 11 18 12 -8 12 -20
1 -38 -9 -58 -30z"/>
<path d="M5191 4726 c-7 -8 -16 -27 -20 -43 -5 -19 -15 -29 -32 -31 -52 -8
-72 -50 -47 -95 12 -20 13 -19 18 23 5 42 7 45 39 50 29 4 36 10 43 36 4 17
15 37 23 44 8 7 15 16 15 21 0 14 -26 10 -39 -5z"/>
<path d="M10440 4598 c0 -32 92 -215 191 -378 42 -69 82 -142 89 -164 12 -38
16 -228 5 -246 -3 -6 -2 -10 4 -10 17 0 34 111 28 183 -7 78 -31 135 -107 257
-29 47 -87 150 -128 230 -41 80 -76 147 -78 149 -2 2 -4 -7 -4 -21z"/>
<path d="M5396 4533 c5 -16 9 -56 9 -89 0 -51 -5 -68 -27 -99 -32 -45 -26 -66
8 -34 49 46 64 154 32 225 -16 34 -32 31 -22 -3z"/>
<path d="M5010 4442 c0 -17 10 -38 25 -52 14 -13 25 -27 25 -31 0 -5 -19 -13
-42 -19 -135 -33 -144 -43 -109 -111 12 -22 21 -46 21 -55 0 -8 5 -12 10 -9
15 9 12 43 -6 75 -10 15 -15 34 -12 42 3 7 34 19 69 27 71 14 99 26 99 43 0 5
-13 26 -30 45 -16 18 -30 43 -30 53 0 11 -4 20 -10 20 -5 0 -10 -13 -10 -28z"/>
<path d="M5204 4313 c-21 -74 -29 -187 -16 -236 9 -33 8 -40 -15 -68 -35 -41
-20 -51 19 -12 l31 31 -12 60 c-12 61 -3 158 19 217 13 33 13 65 1 65 -5 0
-17 -26 -27 -57z"/>
<path d="M5047 4238 c-9 -18 -19 -59 -22 -91 -6 -53 -9 -58 -40 -71 -53 -23
-60 -45 -45 -156 6 -53 16 -103 20 -111 18 -28 22 3 10 88 -17 122 -13 145 27
155 34 9 53 45 53 105 0 18 7 50 15 70 17 41 18 43 7 43 -5 0 -16 -15 -25 -32z"/>
<path d="M10960 4200 c0 -5 11 -42 24 -82 14 -40 32 -129 41 -198 19 -147 29
-189 53 -221 10 -13 24 -37 32 -54 l15 -30 2 45 c2 25 10 86 19 135 17 102 16
206 -3 213 -10 3 -13 -19 -13 -85 0 -79 -5 -117 -26 -203 -6 -24 -7 -23 -20
13 -7 20 -18 74 -24 120 -25 175 -39 244 -60 300 -19 50 -40 75 -40 47z"/>
<path d="M4765 4177 c-10 -8 -25 -29 -34 -48 -9 -19 -25 -35 -36 -37 -40 -6
-64 -26 -79 -64 -16 -40 -21 -122 -10 -177 12 -57 24 -21 23 70 -1 101 13 135
59 145 48 10 51 13 66 48 18 43 44 58 88 49 30 -6 32 -5 19 10 -16 20 -70 22
-96 4z"/>
<path d="M10751 4155 c-1 -11 10 -74 24 -140 55 -264 54 -281 -18 -386 -40
-58 -42 -64 -45 -147 -3 -57 2 -111 13 -157 51 -216 57 -336 25 -519 -12 -68
-18 -132 -14 -152 8 -45 21 -52 16 -10 -2 18 6 80 19 137 33 157 30 301 -11
499 -38 185 -37 246 7 316 73 118 73 118 73 176 0 96 -86 467 -89 383z"/>
<path d="M10900 4154 c0 -3 15 -47 34 -98 19 -50 46 -150 60 -222 14 -72 40
-175 56 -230 41 -130 41 -180 0 -269 -26 -57 -32 -82 -31 -137 0 -37 3 -78 6
-91 6 -23 -14 -166 -39 -267 l-13 -55 -6 64 c-11 102 -8 169 14 286 24 131 37
403 21 431 -11 17 -11 17 -12 -6 -1 -141 -13 -295 -30 -390 -28 -159 -27 -308
2 -397 l22 -67 12 65 c6 35 21 107 34 159 18 80 21 112 16 205 l-6 110 21 -60
c11 -33 30 -69 41 -80 l21 -20 -6 20 c-10 37 -47 140 -57 157 -7 12 -1 35 22
83 27 60 30 73 25 128 -4 34 -18 98 -33 142 -14 44 -36 133 -49 197 -35 169
-53 235 -81 289 -21 43 -44 70 -44 53z"/>
<path d="M5426 4118 c-2 -7 -9 -32 -15 -55 -24 -89 -97 -154 -211 -191 l-55
-17 38 -3 c80 -7 192 71 237 163 26 54 37 115 21 115 -6 0 -13 -6 -15 -12z"/>
<path d="M4881 3988 c-11 -18 -33 -48 -48 -67 -25 -31 -28 -42 -28 -111 l1
-77 -38 -27 c-35 -25 -75 -82 -66 -92 3 -2 34 25 70 60 l67 63 -10 43 c-14 60
-4 93 42 146 22 26 39 56 39 70 0 32 -4 30 -29 -8z"/>
<path d="M5366 3812 c-20 -39 -47 -60 -81 -64 -23 -2 -31 -10 -39 -35 -9 -32
-10 -33 -66 -33 -57 0 -126 -17 -115 -28 7 -7 151 -4 177 4 10 3 21 20 26 37
7 26 14 33 40 35 37 4 82 52 82 88 0 31 -6 30 -24 -4z"/>
<path d="M10883 3665 c3 -16 10 -65 17 -107 13 -81 11 -104 -26 -383 -19 -144
-14 -225 22 -348 24 -81 25 -96 15 -140 -14 -61 -14 -117 0 -137 8 -12 10 -9
6 14 -3 15 2 51 9 80 20 73 17 120 -11 209 -32 99 -33 222 -4 408 27 176 23
334 -10 394 -21 38 -22 39 -18 10z"/>
<path d="M4971 3592 c-7 -30 -20 -56 -28 -59 -8 -3 -45 9 -82 26 -48 24 -77
32 -106 29 l-40 -3 1 -46 c1 -25 12 -69 24 -97 24 -55 88 -122 118 -122 12 0
4 11 -26 39 -43 40 -88 123 -94 176 -3 29 -2 30 35 28 22 -2 63 -17 93 -34 87
-49 129 -23 122 75 l-3 41 -14 -53z"/>
<path d="M5050 3550 c0 -6 15 -38 33 -70 l32 -60 -20 -37 c-13 -25 -34 -45
-62 -58 -49 -23 -54 -35 -17 -35 18 0 41 14 70 44 56 56 60 99 13 169 -33 50
-49 65 -49 47z"/>
<path d="M7877 2867 c-65 -54 -133 -96 -269 -166 -211 -108 -248 -129 -248
-141 0 -13 10 -8 250 118 180 94 227 124 290 181 41 38 73 72 70 75 -3 2 -45
-27 -93 -67z"/>
<path d="M10869 1795 c-131 -26 -255 -89 -427 -216 -204 -150 -343 -196 -673
-219 -206 -14 -217 -19 -434 -220 -199 -184 -286 -219 -555 -228 -193 -6 -175
-20 28 -21 245 -2 358 51 593 275 150 143 169 151 382 170 348 29 467 70 692
235 61 45 144 98 185 119 77 39 255 100 290 100 11 0 20 5 20 10 0 12 -18 12
-101 -5z"/>
<path d="M11010 1742 c0 -66 46 -138 182 -279 97 -101 137 -150 159 -196 16
-34 29 -67 29 -73 0 -29 45 -143 76 -191 55 -86 89 -160 139 -303 26 -74 87
-227 135 -340 48 -113 98 -236 110 -275 23 -72 35 -93 46 -82 10 10 -44 161
-129 357 -43 102 -102 248 -129 325 -64 178 -87 230 -142 318 -26 43 -56 112
-75 172 -39 128 -70 176 -201 310 -121 125 -144 155 -176 234 -22 52 -24 54
-24 23z"/>
</g>
</svg>
