<?xml version="1.0" standalone="no"?>
<!DOCTYPE svg PUBLIC "-//W3C//DTD SVG 20010904//EN"
 "http://www.w3.org/TR/2001/REC-SVG-20010904/DTD/svg10.dtd">
<svg version="1.0" xmlns="http://www.w3.org/2000/svg"
 width="1600.000000pt" height="1200.000000pt" viewBox="0 0 1600.000000 1200.000000"
 preserveAspectRatio="xMidYMid meet">

<g transform="translate(0.000000,1200.000000) scale(0.100000,-0.100000)"
fill="#000000" stroke="none">
<path d="M8780 11275 c0 -19 0 -38 0 -42 0 -5 12 -8 28 -8 23 0 27 4 30 34 4
35 -9 51 -40 51 -14 0 -18 -8 -18 -35z"/>
<path d="M6985 11273 c-61 -32 -110 -79 -175 -168 -112 -151 -251 -401 -321
-574 -26 -66 -57 -120 -97 -171 -134 -170 -274 -424 -357 -643 l-25 -66 63
-34 c34 -19 136 -75 227 -124 l165 -90 81 146 c81 146 104 183 247 403 43 65
77 119 77 121 0 1 -16 11 -35 21 -19 11 -35 25 -35 33 0 18 9 17 74 -12 48
-21 71 -25 160 -25 86 0 108 3 127 19 l23 18 4 384 c4 400 -6 642 -31 702 -30
70 -104 96 -172 60z"/>
<path d="M9195 11183 c-16 -39 -13 -53 14 -53 10 0 24 15 34 35 21 45 22 42
-8 48 -22 4 -28 -1 -40 -30z"/>
<path d="M9530 11058 c-19 -31 -19 -34 -3 -45 25 -19 29 -17 53 23 25 39 25
39 -7 48 -18 6 -26 1 -43 -26z"/>
<path d="M9860 10888 c-22 -30 -22 -32 -5 -45 26 -18 31 -17 55 18 22 29 22
31 4 44 -26 20 -27 19 -54 -17z"/>
<path d="M10162 10679 c-31 -20 -32 -22 -16 -40 22 -25 33 -24 69 6 29 24 29
25 11 40 -25 19 -24 19 -64 -6z"/>
<path d="M5916 9783 c-42 -53 -44 -59 -29 -70 9 -7 20 -13 23 -13 8 0 61 132
56 137 -2 2 -24 -22 -50 -54z"/>
<path d="M5810 9650 l-31 -39 40 -21 c50 -25 50 -25 60 3 23 62 23 65 -8 81
-29 16 -30 15 -61 -24z"/>
<path d="M5979 9563 c-11 -40 -11 -48 2 -55 77 -46 412 -228 417 -228 5 0 18
20 30 44 l21 44 -42 22 c-23 12 -123 66 -223 121 -99 54 -183 99 -186 99 -3 0
-11 -21 -19 -47z"/>
<path d="M5703 9509 c-351 -522 -550 -863 -619 -1064 -24 -68 -28 -97 -28
-190 -1 -133 21 -224 101 -430 87 -224 112 -282 179 -422 l63 -131 283 130
c156 72 285 132 287 134 5 4 -1 24 -51 164 -71 196 -133 470 -159 690 -16 137
-16 475 0 620 13 120 61 379 86 464 8 27 14 50 12 51 -30 18 -97 55 -101 55
-3 0 -27 -32 -53 -71z"/>
<path d="M5940 9432 c-57 -213 -90 -481 -90 -732 0 -155 13 -357 24 -367 2 -3
32 4 67 14 l63 19 49 119 c27 66 100 238 163 383 63 144 114 267 114 272 0 6
11 28 25 50 14 22 25 43 25 47 0 5 -49 34 -108 66 -59 31 -152 82 -207 112
-55 30 -103 55 -107 55 -4 0 -12 -17 -18 -38z"/>
<path d="M8147 8363 c-12 -12 -7 -89 8 -133 24 -68 19 -96 -23 -148 -43 -52
-58 -84 -71 -156 -8 -41 -6 -55 13 -89 54 -104 184 -117 287 -29 42 36 58 38
39 3 -14 -27 -96 -68 -150 -77 l-42 -7 4 -136 c4 -116 9 -148 33 -216 15 -44
32 -85 37 -91 18 -23 77 -218 99 -322 14 -72 22 -144 22 -218 0 -103 -2 -116
-26 -156 -14 -25 -33 -51 -42 -58 -21 -18 -53 -82 -48 -96 4 -12 -131 -24
-265 -24 -66 0 -72 -2 -64 -17 9 -18 15 -98 32 -478 5 -115 13 -241 16 -279
l7 -68 91 6 c50 3 140 8 199 12 l108 7 -8 -29 c-15 -55 -8 -265 11 -334 23
-87 86 -215 135 -277 41 -52 124 -103 167 -103 34 0 74 40 80 81 5 29 -3 57
-39 140 -72 166 -91 239 -91 354 -1 55 5 119 12 141 l12 42 128 7 c70 3 217
12 327 19 l200 13 135 54 c74 29 184 79 245 109 l110 56 0 290 0 289 -40 -3
c-22 -2 -130 -5 -241 -8 l-201 -5 -21 73 c-29 96 -28 119 10 224 32 85 33 95
33 234 0 124 -3 156 -23 220 -69 220 -183 342 -430 461 -119 58 -133 74 -158
189 -21 93 -59 192 -95 246 -68 101 -174 164 -275 164 -61 0 -62 1 -139 65
-76 63 -94 73 -108 58z m158 -253 c17 -19 15 -50 -4 -50 -19 0 -64 47 -57 58
11 18 41 14 61 -8z m-77 -81 c-2 -6 -8 -10 -13 -10 -5 0 -11 4 -13 10 -2 6 4
11 13 11 9 0 15 -5 13 -11z m68 -75 c-37 -19 -70 -33 -73 -30 -7 6 108 65 127
65 8 0 -16 -16 -54 -35z m19 -59 c-38 -6 -74 -9 -80 -6 -15 8 42 19 100 18 49
0 49 0 -20 -12z m575 -722 c0 -5 -20 -16 -45 -27 -62 -25 -132 -98 -168 -174
-27 -59 -29 -69 -25 -157 3 -79 8 -102 34 -152 l30 -58 117 -3 c67 -1 117 -7
117 -12 0 -6 -17 -10 -37 -11 -21 0 -86 -4 -146 -8 -91 -7 -113 -13 -147 -35
-25 -16 -42 -36 -46 -54 -3 -15 -9 -36 -14 -47 -7 -16 -9 -11 -9 22 -1 52 30
91 91 118 24 10 44 20 46 21 2 1 -3 13 -11 26 -32 49 -59 166 -55 237 6 119
87 244 193 300 40 21 75 27 75 14z"/>
<path d="M5925 8306 c-29 -9 -41 -19 -43 -35 -9 -57 68 -368 141 -574 33 -92
45 -116 57 -111 8 4 42 17 75 29 33 12 95 39 139 59 62 28 77 39 72 52 -4 10
-38 67 -77 128 -244 383 -296 461 -309 462 -8 1 -33 -3 -55 -10z"/>
<path d="M8057 8263 c-12 -11 -8 -36 19 -106 l27 -69 24 25 c22 21 24 29 18
71 -6 39 -13 51 -39 67 -34 21 -39 22 -49 12z"/>
<path d="M7800 7581 c0 -39 30 -59 47 -31 10 14 8 21 -5 32 -35 31 -42 30 -42
-1z"/>
<path d="M7690 7575 c-21 -23 -22 -27 -9 -40 13 -14 18 -13 37 8 14 15 20 30
16 40 -8 23 -16 21 -44 -8z"/>
<path d="M8140 7533 c-35 -34 -163 -103 -193 -103 -9 0 -18 12 -22 30 -8 38
-23 47 -40 24 -9 -13 -10 -26 -4 -43 5 -13 7 -26 4 -29 -2 -3 -46 -13 -97 -23
-51 -9 -99 -19 -107 -21 -11 -2 -14 7 -12 38 1 26 -3 45 -13 53 -12 10 -16 7
-25 -26 -6 -21 -11 -49 -11 -62 0 -13 -16 -41 -35 -62 -54 -61 -46 -115 23
-142 31 -12 41 -23 50 -55 7 -22 21 -51 31 -64 l19 -23 7 25 c3 15 -1 41 -10
64 -9 21 -15 39 -13 41 2 1 44 7 93 14 50 7 100 15 112 17 17 5 22 1 25 -18 4
-33 42 -32 46 2 3 24 11 28 145 60 108 27 141 39 140 50 -1 8 -14 49 -29 90
-14 41 -29 101 -32 133 -2 32 -8 59 -11 61 -3 2 -22 -12 -41 -31z"/>
<path d="M7894 7059 c-15 -30 -11 -69 6 -69 8 0 50 70 50 83 0 3 -9 7 -20 10
-15 4 -24 -2 -36 -24z"/>
<path d="M7754 6995 c-4 -8 -1 -22 6 -29 15 -19 69 -31 81 -19 16 16 -1 43
-26 43 -13 0 -27 5 -30 10 -9 15 -25 12 -31 -5z"/>
<path d="M11910 6544 c-113 -14 -262 -39 -378 -65 l-133 -29 -355 0 -355 0
-31 -37 c-133 -156 -354 -357 -530 -482 l-88 -62 0 -95 0 -95 68 6 c37 3 229
14 427 25 448 25 425 22 418 63 -6 40 9 102 26 102 9 0 13 -23 14 -78 2 -71 5
-81 27 -99 73 -61 234 -104 323 -87 60 11 100 41 285 212 183 169 203 184 352
254 202 95 224 107 272 154 106 105 62 239 -96 288 -66 20 -183 32 -246 25z"/>
<path d="M9874 6178 c3 -149 8 -274 11 -276 2 -2 28 11 58 29 50 31 55 38 61
78 3 25 3 134 -1 243 l-6 198 -65 0 -65 0 7 -272z"/>
<path d="M10037 6228 c3 -123 7 -224 8 -226 3 -4 151 106 210 157 55 48 172
160 250 240 l49 51 -261 0 -261 0 5 -222z"/>
<path d="M9933 5806 c-52 -31 -52 -31 -53 -83 0 -51 1 -53 28 -53 15 0 44 3
65 6 l37 7 0 78 c0 57 -3 79 -12 78 -7 -1 -36 -15 -65 -33z"/>
<path d="M9750 5704 l-85 -44 90 6 c50 4 90 7 90 8 1 0 -2 17 -5 37 l-5 37
-85 -44z"/>
<path d="M7413 4385 c-55 -28 -99 -80 -109 -131 -5 -29 -14 -34 -91 -64 l-85
-32 5 -36 c18 -116 18 -200 -2 -407 -12 -121 -26 -247 -31 -280 -36 -222 -55
-422 -80 -825 -9 -142 -14 -177 -27 -187 -16 -13 -118 -17 -368 -18 -55 0
-149 -1 -209 -3 l-109 -2 6 -162 c4 -90 11 -230 16 -313 5 -82 13 -238 17
-345 4 -114 11 -198 17 -201 19 -12 127 -30 237 -39 114 -9 305 1 383 20 l42
11 -3 325 -4 324 444 0 c470 0 468 0 468 47 0 13 5 23 10 23 6 0 10 -12 10
-26 0 -16 5 -24 13 -21 9 3 11 33 9 113 l-2 109 25 -77 26 -78 77 0 c144 0
386 36 445 66 15 8 27 22 27 32 0 10 -20 90 -44 177 -39 138 -100 378 -120
468 -5 21 -3 28 6 25 12 -4 48 -124 98 -328 31 -124 83 -273 98 -278 17 -5 15
26 -4 79 -21 60 -146 530 -142 535 2 2 85 15 183 29 99 15 332 48 519 75 186
27 340 51 342 53 2 2 9 30 15 63 15 81 6 312 -16 396 l-17 66 -72 4 c-39 2
-228 0 -421 -3 -192 -4 -433 -8 -535 -9 l-184 -3 -18 59 c-10 32 -18 64 -18
70 0 6 21 17 47 24 144 41 197 205 106 328 -55 73 -183 97 -257 47 -41 -27
-46 -29 -46 -16 0 18 104 61 147 61 47 0 106 -21 135 -47 15 -13 21 -14 31 -4
9 9 7 16 -13 31 -78 61 -173 68 -266 20 -32 -16 -60 -30 -61 -30 -1 0 -28 23
-60 51 -67 59 -154 106 -214 115 -34 6 -54 18 -98 64 -85 85 -180 104 -278 55z"/>
<path d="M9906 4184 c-45 -46 -50 -84 -39 -297 6 -105 7 -196 3 -201 -18 -19
-28 37 -35 182 -8 161 -13 174 -54 133 -27 -27 -41 -126 -41 -284 l0 -137 -89
0 c-50 0 -92 -3 -94 -7 -3 -5 4 -48 14 -98 20 -96 25 -279 9 -370 -4 -27 -7
-51 -6 -52 8 -9 479 69 516 85 101 44 144 134 201 417 29 146 30 226 5 254
-11 12 -24 21 -31 21 -27 0 -58 -53 -95 -165 -42 -124 -55 -149 -65 -123 -8
20 58 221 87 268 18 29 22 54 26 151 5 125 -5 177 -41 217 -23 25 -63 29 -93
8 -20 -14 -21 -28 -27 -252 -4 -131 -9 -239 -11 -242 -3 -2 -10 -1 -17 3 -9 6
-10 65 -4 245 l7 238 -23 16 c-34 24 -72 20 -103 -10z"/>
<path d="M9461 2904 c-10 -22 -9 -28 6 -39 15 -11 20 -10 32 7 10 15 11 26 4
36 -16 26 -29 24 -42 -4z"/>
<path d="M9120 2796 c0 -14 10 -32 22 -40 21 -15 23 -15 31 6 6 17 3 26 -15
40 -31 24 -38 22 -38 -6z"/>
<path d="M9339 2772 c-26 -22 -21 -56 8 -45 31 11 41 23 36 43 -7 25 -15 25
-44 2z"/>
<path d="M9690 1820 c0 -5 5 -10 10 -10 6 0 10 5 10 10 0 6 -4 10 -10 10 -5 0
-10 -4 -10 -10z"/>
<path d="M6186 1757 c-11 -8 -17 -22 -14 -36 3 -23 3 -23 25 -5 14 13 19 25
14 37 -5 15 -9 16 -25 4z"/>
<path d="M6063 1602 c-17 -3 -23 -10 -23 -28 0 -22 3 -24 23 -18 29 9 29 9 25
31 -2 12 -10 17 -25 15z"/>
<path d="M6156 1423 c-4 -9 -1 -20 6 -25 19 -12 26 -10 37 11 8 15 7 20 -5 25
-24 9 -31 7 -38 -11z"/>
<path d="M6365 1121 c4 -102 10 -234 14 -293 l6 -108 -146 0 c-158 0 -242 -8
-233 -21 3 -5 464 -9 1035 -9 908 0 1029 2 1029 15 0 13 -27 15 -179 15 -175
0 -179 0 -174 20 7 25 -36 89 -83 125 -48 37 -169 92 -239 109 -85 22 -230 38
-300 34 l-60 -3 -3 148 c-2 125 -5 148 -17 143 -79 -30 -466 -32 -594 -3 l-63
14 7 -186z m1000 -262 c78 -14 131 -42 155 -82 26 -42 25 -57 -4 -57 -18 0
-25 7 -30 30 -4 24 -15 35 -48 50 -58 25 -156 42 -225 38 -36 -2 -57 1 -60 9
-8 22 117 30 212 12z"/>
</g>
</svg>
